<?xml version="1.0" standalone="no"?>
<!DOCTYPE svg PUBLIC "-//W3C//DTD SVG 20010904//EN"
 "http://www.w3.org/TR/2001/REC-SVG-20010904/DTD/svg10.dtd">
<svg version="1.0" xmlns="http://www.w3.org/2000/svg"
 width="1280.000000pt" height="762.000000pt" viewBox="0 0 1280.000000 762.000000"
 preserveAspectRatio="xMidYMid meet">
<g transform="translate(0.000000,762.000000) scale(0.100000,-0.100000)"
fill="#000000" stroke="none">
<path d="M6895 7599 c-341 -45 -607 -145 -900 -337 -184 -121 -296 -213 -456
-372 -169 -168 -270 -293 -414 -510 -568 -854 -1059 -2200 -1360 -3720 -31
-157 -62 -290 -68 -296 -7 -7 -70 -14 -155 -17 l-142 -6 -58 70 -57 71 -360
-7 c-198 -3 -362 -8 -364 -11 -2 -2 -13 -385 -23 -852 -10 -466 -21 -856 -23
-867 -5 -19 -84 -75 -106 -75 -5 0 -14 11 -19 24 -13 35 -49 56 -107 62 l-49
6 -12 572 c-12 553 -21 713 -46 785 -11 33 -22 44 -59 55 -17 5 -17 16 -11
147 8 151 6 159 -42 159 -33 0 -43 19 -55 106 -13 90 -21 102 -102 155 -87 57
-152 73 -282 73 -162 -1 -276 -43 -397 -146 -22 -19 -29 -36 -38 -93 -18 -121
-14 -115 -70 -115 -28 0 -50 -1 -50 -3 0 -51 -53 -484 -61 -492 -6 -6 -105 -9
-287 -7 -376 4 -621 -15 -651 -52 -5 -6 -19 -229 -30 -496 -12 -267 -25 -518
-30 -558 -4 -40 -4 -75 -1 -77 4 -3 33 0 64 5 48 8 75 5 167 -16 96 -23 117
-32 183 -79 72 -52 76 -53 247 -90 96 -21 184 -43 196 -51 11 -7 72 -75 134
-150 111 -135 112 -136 148 -131 20 3 178 16 351 28 l315 22 295 -58 295 -58
140 7 c77 3 253 13 390 21 138 8 349 15 470 15 121 0 513 5 870 11 l650 11
520 -75 c286 -42 633 -93 770 -113 281 -41 267 -41 780 -5 l270 19 550 -33
c303 -19 587 -39 632 -45 60 -9 95 -9 135 -1 29 6 249 29 488 51 239 22 552
52 695 66 264 26 263 26 1403 49 l342 7 60 83 c32 45 65 86 72 92 7 6 124 16
268 23 140 7 256 13 258 15 2 2 18 59 36 129 18 69 34 128 37 130 14 15 443
154 488 159 30 4 58 10 62 14 3 5 3 42 -2 83 -4 41 -18 314 -29 605 -12 292
-24 532 -26 534 -2 2 -42 3 -88 2 -82 -2 -86 -1 -90 21 -3 13 -41 507 -86
1098 -44 591 -84 1093 -89 1115 -8 36 -9 31 -10 -40 -10 -500 -70 -2268 -77
-2275 -6 -6 -38 17 -83 57 l-73 67 -92 -12 c-71 -9 -93 -9 -102 1 -6 7 -27
135 -47 286 -20 150 -38 275 -40 278 -3 2 -33 7 -68 11 -61 7 -65 8 -82 45
l-17 37 -131 0 -131 0 -57 -44 -58 -45 -156 -18 c-87 -11 -161 -16 -167 -13
-5 3 -18 297 -30 715 -14 509 -25 744 -37 831 l-17 122 -102 -6 c-57 -2 -183
1 -281 8 l-178 13 -30 31 c-17 17 -53 57 -80 90 l-51 59 -74 -47 c-41 -25 -80
-46 -87 -46 -7 0 -15 12 -19 28 -60 264 -147 488 -345 887 -216 437 -438 847
-597 1100 -245 392 -506 672 -822 883 -285 190 -542 277 -931 316 -189 19
-233 19 -414 -5z m475 -208 c450 -83 746 -241 1061 -569 277 -287 477 -599
684 -1067 65 -148 297 -730 373 -940 95 -258 159 -522 133 -548 -7 -7 -33 -4
-85 11 -41 12 -76 22 -79 22 -3 0 -40 -64 -83 -142 l-79 -143 0 -720 0 -720
-283 -7 -283 -8 -127 -65 c-207 -105 -192 -91 -192 -185 0 -44 -1 -81 -2 -82
-2 -1 -97 -4 -213 -7 l-209 -6 -123 -140 c-114 -129 -123 -143 -123 -180 0
-22 7 -283 15 -580 19 -693 19 -795 2 -795 -7 0 -30 17 -50 38 l-38 39 -14
479 c-8 263 -15 690 -15 949 0 259 -3 581 -7 717 l-6 247 -96 138 -97 138 -59
6 c-33 4 -106 7 -162 8 l-101 1 -128 -142 c-70 -79 -141 -157 -157 -175 l-30
-32 18 -459 19 -460 -69 -118 c-126 -218 -113 -139 -105 -609 4 -225 6 -413 3
-417 -2 -5 -37 -8 -78 -8 l-74 0 -5 33 c-3 17 -17 158 -31 312 -14 154 -28
290 -30 301 -4 19 -14 22 -105 29 l-100 7 -47 61 -47 61 -7 116 c-4 63 -8 130
-8 149 -2 65 -9 25 -21 -109 -12 -141 -44 -252 -78 -265 -8 -3 -87 -21 -175
-40 -88 -19 -162 -37 -165 -40 -3 -3 0 -147 6 -321 7 -174 9 -320 6 -325 -3
-5 -43 -9 -90 -9 -78 0 -85 2 -93 23 -11 28 -34 202 -66 497 -14 129 -28 250
-30 267 -4 22 -43 78 -121 173 -64 77 -117 140 -119 140 -2 0 -202 -251 -262
-329 -8 -11 -15 -13 -22 -6 -6 6 -16 179 -26 435 -9 234 -18 444 -21 468 l-5
42 -282 0 c-155 0 -288 4 -295 9 -15 9 0 106 79 526 292 1536 799 2959 1268
3558 294 376 839 728 1216 787 97 15 414 4 535 -19z m5039 -3721 c-1 -32 -2
-33 -9 -10 -4 14 -8 36 -9 50 -1 20 1 22 9 10 5 -8 9 -31 9 -50z"/>
</g>
</svg>
